# Blender v2.79 (sub 0) OBJ File: 'TableCounter.blend'
# www.blender.org
mtllib TableCounter.mtl
o Cube
v -4.112162 -2.019057 0.106433
v -4.112161 -2.019057 -2.062810
v -4.112162 1.000000 0.106433
v -4.112162 1.000000 -2.062809
v -6.323224 2.097691 -6.609019
v -6.323225 2.097691 -0.403824
v -4.187154 0.788770 -4.391066
v -4.187154 0.788770 1.814129
v -6.323224 0.788770 -6.609019
v -6.323225 0.788770 -0.403824
v -4.187154 2.097691 -4.391066
v -4.187154 2.097691 1.814129
v 4.112162 -2.019057 0.106433
v 4.112161 -2.019057 -2.062810
v 4.112162 1.000000 0.106433
v 4.112162 1.000000 -2.062809
v 6.323224 2.097691 -6.609019
v 6.323225 2.097691 -0.403824
v 4.187154 0.788770 -4.391066
v 4.187154 0.788770 1.814129
v 6.323224 0.788770 -6.609019
v 6.323225 0.788770 -0.403824
v 4.187154 2.097691 -4.391066
v 4.187154 2.097691 1.814129
v 0.000000 -2.019057 -2.062809
v 0.000000 -2.019057 0.106433
v 0.000000 1.000000 -2.062809
v 0.000000 1.000000 0.106434
v 0.000000 0.788770 -4.391066
v 0.000000 0.788770 1.814130
v 0.000000 2.097691 -4.391066
v 0.000000 2.097691 1.814130
v 0.000000 -1.479073 -2.062809
v -3.572177 -1.479073 -2.062810
v -3.572177 0.460016 -2.062809
v 0.000000 0.460016 -2.062809
v 3.572177 0.460016 -2.062809
v 3.572177 -1.479073 -2.062810
v 0.000000 -1.479073 -0.085344
v -3.572177 -1.479073 -0.085345
v 3.572177 -1.479073 -0.085345
v -3.572177 0.460016 -0.085344
v 0.000000 0.460016 -0.085344
v 3.572177 0.460016 -0.085344
vt 0.750038 0.165856
vt 0.679129 0.165856
vt 0.679129 0.032443
vt 0.750038 0.032443
vt 0.673835 0.832932
vt 0.673835 0.762555
vt 0.680923 0.707151
vt 0.680923 0.908469
vt 0.373449 0.165856
vt 0.472148 0.165856
vt 0.472148 0.299268
vt 0.373449 0.299268
vt 0.608450 0.707151
vt 0.608450 0.804749
vt 0.537533 0.804749
vt 0.537533 0.707151
vt 0.168994 0.804297
vt 0.232160 0.804297
vt 0.232160 0.868452
vt 0.168994 0.868452
vt 0.923599 0.172961
vt 0.966096 0.176395
vt 0.966096 0.248591
vt 0.923599 0.245157
vt 0.537533 0.570315
vt 0.537533 0.369021
vt 0.607366 0.440970
vt 0.607366 0.642265
vt 0.032692 0.373435
vt 0.235554 0.373435
vt 0.308064 0.442737
vt 0.105202 0.442737
vt 0.854946 0.939939
vt 0.812317 0.939032
vt 0.807968 0.866965
vt 0.850596 0.867872
vt 0.854946 0.666601
vt 0.812317 0.665694
vt 0.750038 0.299268
vt 0.679129 0.299268
vt 0.292750 0.583160
vt 0.299838 0.507623
vt 0.299838 0.708941
vt 0.292750 0.653537
vt 0.373448 0.032443
vt 0.472148 0.032443
vt 0.103610 0.901894
vt 0.032692 0.901894
vt 0.032692 0.804297
vt 0.103610 0.804297
vt 0.923599 0.108074
vt 0.923599 0.035878
vt 0.966096 0.032443
vt 0.966096 0.104639
vt 0.672750 0.440970
vt 0.742583 0.369021
vt 0.742583 0.570315
vt 0.672750 0.642265
vt 0.032692 0.101745
vt 0.105202 0.032443
vt 0.308064 0.032443
vt 0.235554 0.101745
vt 0.967308 0.665694
vt 0.962959 0.737761
vt 0.920330 0.738668
vt 0.924679 0.666601
vt 0.967308 0.939032
vt 0.924679 0.939939
vt 0.472148 0.497567
vt 0.472148 0.630979
vt 0.454495 0.613460
vt 0.454495 0.497567
vt 0.373449 0.630979
vt 0.391102 0.613460
vt 0.373449 0.497567
vt 0.391102 0.497567
vt 0.373448 0.364155
vt 0.391102 0.381674
vt 0.472148 0.364155
vt 0.454495 0.381674
vt 0.871361 0.484914
vt 0.871361 0.600807
vt 0.807968 0.600807
vt 0.807968 0.484914
vt 0.807968 0.369021
vt 0.871361 0.369021
vt 0.373449 0.967557
vt 0.373449 0.831711
vt 0.373448 0.695866
vt 0.416240 0.695866
vt 0.416240 0.831711
vt 0.416240 0.967557
vt 0.032692 0.739410
vt 0.032692 0.623517
vt 0.097340 0.623517
vt 0.097340 0.739410
vt 0.227365 0.507623
vt 0.227365 0.623517
vt 0.227365 0.739410
vt 0.162725 0.739410
vt 0.162725 0.507623
vt 0.537533 0.869636
vt 0.600699 0.869636
vt 0.600699 0.933791
vt 0.537533 0.933791
vt 0.032692 0.507623
vt 0.097340 0.507623
vt 0.032692 0.237590
vt 0.235554 0.237590
vt 0.858214 0.304134
vt 0.815423 0.304134
vt 0.815423 0.168289
vt 0.815423 0.032443
vt 0.858214 0.032443
vt 0.858214 0.168289
vt 0.613744 0.304134
vt 0.537533 0.301701
vt 0.537533 0.168289
vt 0.537533 0.034876
vt 0.613744 0.032443
vt 0.613744 0.168289
vn 0.0000 -1.0000 0.0000
vn 0.9424 -0.3346 0.0000
vn -0.0000 -0.0000 1.0000
vn -1.0000 -0.0000 -0.0000
vn 0.7203 0.0000 -0.6937
vn 0.0000 1.0000 0.0000
vn -0.7203 0.0000 0.6937
vn -0.9424 -0.3346 0.0000
vn 1.0000 0.0000 -0.0000
vn -0.7203 0.0000 -0.6937
vn 0.7203 0.0000 0.6937
vn 0.0000 -0.0000 -1.0000
vn 0.0000 -0.9959 0.0904
usemtl Material
s off
f 25/1/1 26/2/1 1/3/1 2/4/1
f 4/5/2 3/6/2 8/7/2 7/8/2
f 26/9/3 28/10/3 3/11/3 1/12/3
f 1/13/4 3/14/4 4/15/4 2/16/4
f 37/17/4 38/18/4 41/19/4 44/20/4
f 11/21/5 7/22/5 9/23/5 5/24/5
f 7/25/1 8/26/1 10/27/1 9/28/1
f 12/29/6 11/30/6 5/31/6 6/32/6
f 8/33/7 12/34/7 6/35/7 10/36/7
f 9/37/4 10/36/4 6/35/4 5/38/4
f 25/1/1 14/39/1 13/40/1 26/2/1
f 16/41/8 19/42/8 20/43/8 15/44/8
f 26/9/3 13/45/3 15/46/3 28/10/3
f 13/47/9 14/48/9 16/49/9 15/50/9
f 23/51/10 17/52/10 21/53/10 19/54/10
f 19/55/1 21/56/1 22/57/1 20/58/1
f 24/59/6 18/60/6 17/61/6 23/62/6
f 20/63/11 22/64/11 18/65/11 24/66/11
f 21/67/9 17/68/9 18/65/9 22/64/9
f 25/69/12 2/70/12 34/71/12 33/72/12
f 2/70/12 4/73/12 35/74/12 34/71/12
f 4/73/12 27/75/12 36/76/12 35/74/12
f 27/75/12 16/77/12 37/78/12 36/76/12
f 16/77/12 14/79/12 38/80/12 37/78/12
f 14/79/12 25/69/12 33/72/12 38/80/12
f 39/81/12 40/82/12 42/83/12 43/84/12 44/85/12 41/86/12
f 8/87/3 30/88/3 20/89/3 24/90/3 32/91/3 12/92/3
f 38/93/6 33/94/6 39/95/6 41/96/6
f 35/97/1 36/98/1 37/99/1 44/100/1 42/101/1
f 34/102/9 35/103/9 42/104/9 40/105/9
f 33/94/6 34/106/6 40/107/6 39/95/6
f 11/30/6 12/29/6 32/108/6 24/59/6 23/62/6 31/109/6
f 7/110/12 11/111/12 31/112/12 23/113/12 19/114/12 29/115/12
f 19/116/13 16/117/13 27/118/13 4/119/13 7/120/13 29/121/13
