# Blender v2.79 (sub 0) OBJ File: 'Couch.blend'
# www.blender.org
o Cube
v 1.000000 -1.000000 -0.339470
v 1.000000 -1.000000 0.339470
v -1.000000 -1.000000 0.339470
v -1.000000 -1.000000 -0.339470
v 1.000000 -0.658106 -0.339470
v 1.000000 0.008560 -0.339470
v 1.000000 -0.658106 0.339470
v 1.000000 0.008560 0.339470
v -1.000000 -0.658106 0.339470
v -1.000000 0.008560 0.339470
v -1.592255 2.037058 -0.339470
v -1.000000 0.008560 -0.339470
v 1.000000 -1.000000 -3.437915
v -1.000000 -1.000000 -3.437915
v 1.000000 -0.658106 -3.437915
v 1.000000 0.008561 -3.437915
v -1.000000 0.008561 -3.437915
v -1.000000 -1.000000 -1.888692
v 1.000000 -1.000000 -1.888692
v 1.000000 -0.658106 -1.888692
v -1.000000 0.008560 -1.888692
v -2.235007 2.037058 -4.820204
v 1.000000 0.008560 -1.888692
v 1.000000 -1.000000 -4.820203
v -1.000000 -1.000000 -4.820203
v 1.000000 -0.658106 -4.820203
v 1.000000 0.008561 -4.820203
v -1.592255 2.037058 -4.820203
v -1.000000 0.008561 -4.820203
v 3.365259 -1.000001 -3.437915
v 3.365259 -0.658107 -3.437915
v 3.365260 0.008560 -3.437915
v 3.365259 -1.000001 -4.820203
v 3.365259 -0.658107 -4.820203
v 3.365260 0.008560 -4.820203
v 1.000000 -1.000000 -5.347953
v -1.000000 -1.000000 -5.347953
v 1.000000 -0.658106 -5.347953
v 1.000000 0.008561 -5.347953
v -1.000000 -0.658106 -5.347953
v -1.000000 0.008561 -5.347953
v 0.372451 0.819651 -0.339470
v -1.233074 0.819651 -0.339470
v -1.233075 0.819651 0.339470
v 0.372450 0.819651 0.339470
v 0.372451 0.819651 -4.820203
v -1.233074 0.819651 -4.820203
v -1.233074 0.819651 -5.347953
v 0.372451 0.819651 -5.347953
v -1.642751 -1.000000 -0.339470
v -1.642751 0.008560 -0.339470
v -1.642751 -1.000000 -1.888693
v -1.642751 -1.000000 -3.437915
v -1.642751 -0.658106 -3.437915
v -1.642751 0.008560 -3.437915
v -1.642751 0.008560 -4.820204
v -1.642751 0.008560 -1.888693
v -1.642751 -0.658106 -1.888693
v -1.642751 -1.000000 -4.820204
v -1.642751 -0.658106 -4.820204
v -1.592255 2.037058 -3.437915
v -1.592255 2.037058 -1.888692
v -2.235007 2.037058 -0.339470
v -2.235007 2.037058 -1.888693
v -2.235007 2.037058 -3.437915
vt 0.168624 0.306984
vt 0.076043 0.275817
vt 0.168624 0.275817
vt 0.606318 0.414517
vt 0.622105 0.343400
vt 0.622105 0.414517
vt 0.076043 0.204701
vt 0.168624 0.133584
vt 0.168624 0.204701
vt 0.915098 0.381768
vt 0.939527 0.427605
vt 0.915098 0.427605
vt 0.674724 0.711118
vt 0.643864 0.711118
vt 0.643864 0.619308
vt 0.622105 0.485633
vt 0.606318 0.516800
vt 0.606318 0.485633
vt 0.652888 0.485633
vt 0.622105 0.516800
vt 0.168624 0.070131
vt 0.278112 0.133584
vt 0.652888 0.343400
vt 0.652888 0.414517
vt 0.463273 0.117021
vt 0.370693 0.188138
vt 0.370693 0.117021
vt 0.046290 0.275817
vt 0.046290 0.204701
vt 0.076043 0.070131
vt 0.046290 0.133584
vt 0.046290 0.070131
vt 0.463273 0.045905
vt 0.370693 0.045905
vt 0.076043 0.133584
vt 0.463273 0.251591
vt 0.370693 0.251591
vt 0.141891 0.469910
vt 0.046290 0.398793
vt 0.141891 0.398793
vt 0.232244 0.696289
vt 0.201384 0.804865
vt 0.201384 0.696289
vt 0.813914 0.848107
vt 0.783131 0.911561
vt 0.783131 0.848107
vt 0.829701 0.848107
vt 0.813914 0.911561
vt 0.077150 0.696289
vt 0.046290 0.804865
vt 0.046290 0.696289
vt 0.185557 0.804865
vt 0.185557 0.696289
vt 0.092977 0.696289
vt 0.077150 0.804865
vt 0.168624 0.045905
vt 0.879700 0.056604
vt 0.842155 0.119606
vt 0.842155 0.045905
vt 0.416915 0.485633
vt 0.513738 0.549087
vt 0.416915 0.549087
vt 0.702888 0.137714
vt 0.665342 0.074712
vt 0.702888 0.045905
vt 0.395122 0.954095
vt 0.370693 0.880394
vt 0.395122 0.880394
vt 0.922282 0.848107
vt 0.953710 0.921808
vt 0.922281 0.921808
vt 0.822517 0.435210
vt 0.784972 0.372208
vt 0.822517 0.343400
vt 0.652888 0.516800
vt 0.692391 0.485633
vt 0.692391 0.516800
vt 0.606318 0.682310
vt 0.606318 0.608609
vt 0.913850 0.647783
vt 0.938280 0.608609
vt 0.938280 0.647783
vt 0.408832 0.646544
vt 0.370693 0.686338
vt 0.379629 0.640896
vt 0.234472 0.398793
vt 0.264225 0.462247
vt 0.234472 0.462247
vt 0.264225 0.533363
vt 0.234472 0.533363
vt 0.264225 0.604480
vt 0.234472 0.604480
vt 0.416915 0.343400
vt 0.513738 0.414517
vt 0.416915 0.414517
vt 0.513738 0.485633
vt 0.141891 0.541026
vt 0.046290 0.469910
vt 0.141891 0.604480
vt 0.046290 0.541026
vt 0.379629 0.782938
vt 0.399896 0.691985
vt 0.408832 0.788585
vt 0.812334 0.705209
vt 0.792067 0.614257
vt 0.821270 0.608609
vt 0.939527 0.343400
vt 0.915098 0.343400
vt 0.792067 0.756298
vt 0.821270 0.750650
vt 0.637747 0.802927
vt 0.606318 0.841295
vt 0.606318 0.802927
vt 0.913850 0.678310
vt 0.938280 0.678310
vt 0.749574 0.045905
vt 0.749574 0.137714
vt 0.370693 0.549087
vt 0.370693 0.485633
vt 0.370693 0.343400
vt 0.370693 0.414517
vt 0.606318 0.887132
vt 0.637747 0.841295
vt 0.637747 0.887132
vt 0.076043 0.306984
vt 0.606318 0.343400
vt 0.939527 0.381768
vt 0.690551 0.619308
vt 0.690551 0.711118
vt 0.278112 0.070131
vt 0.463273 0.188138
vt 0.572762 0.188138
vt 0.572762 0.251591
vt 0.232244 0.804865
vt 0.829701 0.911561
vt 0.092977 0.804865
vt 0.076043 0.045905
vt 0.879700 0.148413
vt 0.665342 0.148413
vt 0.370693 0.954095
vt 0.953710 0.848107
vt 0.784972 0.445909
vt 0.913850 0.608609
vt 0.264225 0.398793
vt 0.513738 0.343400
vt 0.046290 0.604480
vt 0.783131 0.710856
vt 0.938280 0.693965
vt 0.913850 0.693965
vn 0.0000 -1.0000 0.0000
vn 1.0000 0.0000 0.0000
vn -1.0000 -0.0000 0.0000
vn -0.0000 -0.0000 1.0000
vn 0.0000 1.0000 0.0000
vn 0.9599 0.2803 0.0000
vn 0.0000 0.0000 -1.0000
vn -0.9599 -0.2803 0.0000
vn 0.7909 0.6119 0.0000
vn -0.9611 -0.2762 0.0000
s off
f 2/1/1 4/2/1 1/3/1
f 19/4/2 15/5/2 20/6/2
f 18/7/1 13/8/1 19/9/1
f 29/10/3 37/11/3 25/12/3
f 7/13/4 8/14/4 10/15/4
f 5/16/2 2/17/2 1/18/2
f 6/19/2 7/20/2 5/16/2
f 24/21/1 30/22/1 13/8/1
f 20/6/2 16/23/2 23/24/2
f 23/25/5 17/26/5 21/27/5
f 18/7/1 50/28/1 52/29/1
f 25/30/1 53/31/1 59/32/1
f 6/33/5 21/27/5 12/34/5
f 5/16/2 23/24/2 6/19/2
f 4/2/1 19/9/1 1/3/1
f 1/18/2 20/6/2 5/16/2
f 14/35/1 24/21/1 13/8/1
f 27/36/5 29/37/5 17/26/5
f 21/38/6 11/39/6 12/40/6
f 27/41/7 34/42/7 26/43/7
f 31/44/2 35/45/2 32/46/2
f 30/47/2 34/48/2 31/44/2
f 15/49/4 32/50/4 16/51/4
f 26/43/7 33/52/7 24/53/7
f 13/54/4 31/55/4 15/49/4
f 25/30/1 36/56/1 24/21/1
f 29/57/4 46/58/4 47/59/4
f 55/60/8 22/61/8 56/62/8
f 41/63/7 49/64/7 39/65/7
f 46/66/5 48/67/5 47/68/5
f 43/69/5 45/70/5 42/71/5
f 12/72/7 42/73/7 6/74/7
f 8/75/9 42/76/9 45/77/9
f 10/15/4 45/78/4 44/79/4
f 39/80/9 46/81/9 27/82/9
f 59/83/7 29/84/7 25/85/7
f 14/35/1 52/29/1 53/31/1
f 28/86/5 65/87/5 61/88/5
f 61/88/5 64/89/5 62/90/5
f 62/90/5 63/91/5 11/92/5
f 51/93/8 64/94/8 57/95/8
f 57/95/8 65/96/8 55/60/8
f 17/97/6 62/98/6 21/38/6
f 29/99/6 61/100/6 17/97/6
f 28/101/7 56/102/7 22/103/7
f 51/104/4 11/105/4 63/106/4
f 48/107/10 29/10/10 47/108/10
f 4/109/4 51/104/4 50/110/4
f 43/111/10 10/112/10 44/113/10
f 38/114/2 39/80/2 26/115/2
f 41/63/7 36/116/7 37/117/7
f 59/118/3 55/60/3 56/62/3
f 53/119/3 57/95/3 55/60/3
f 50/120/3 57/95/3 52/121/3
f 3/122/3 12/123/3 4/124/3
f 2/1/1 3/125/1 4/2/1
f 19/4/2 13/126/2 15/5/2
f 18/7/1 14/35/1 13/8/1
f 29/10/3 41/127/3 37/11/3
f 10/15/4 3/128/4 7/13/4
f 3/128/4 2/129/4 7/13/4
f 5/16/2 7/20/2 2/17/2
f 6/19/2 8/75/2 7/20/2
f 24/21/1 33/130/1 30/22/1
f 20/6/2 15/5/2 16/23/2
f 23/25/5 16/131/5 17/26/5
f 18/7/1 4/2/1 50/28/1
f 25/30/1 14/35/1 53/31/1
f 6/33/5 23/25/5 21/27/5
f 5/16/2 20/6/2 23/24/2
f 4/2/1 18/7/1 19/9/1
f 1/18/2 19/4/2 20/6/2
f 14/35/1 25/30/1 24/21/1
f 17/26/5 16/131/5 27/36/5
f 16/131/5 32/132/5 27/36/5
f 32/132/5 35/133/5 27/36/5
f 21/38/6 62/98/6 11/39/6
f 27/41/7 35/134/7 34/42/7
f 31/44/2 34/48/2 35/45/2
f 30/47/2 33/135/2 34/48/2
f 15/49/4 31/55/4 32/50/4
f 26/43/7 34/42/7 33/52/7
f 13/54/4 30/136/4 31/55/4
f 25/30/1 37/137/1 36/56/1
f 29/57/4 27/138/4 46/58/4
f 55/60/8 65/96/8 22/61/8
f 41/63/7 48/139/7 49/64/7
f 46/66/5 49/140/5 48/67/5
f 43/69/5 44/141/5 45/70/5
f 12/72/7 43/142/7 42/73/7
f 8/75/9 6/19/9 42/76/9
f 10/15/4 8/14/4 45/78/4
f 39/80/9 49/143/9 46/81/9
f 59/83/7 56/102/7 29/84/7
f 14/35/1 18/7/1 52/29/1
f 28/86/5 22/144/5 65/87/5
f 61/88/5 65/87/5 64/89/5
f 62/90/5 64/89/5 63/91/5
f 51/93/8 63/145/8 64/94/8
f 57/95/8 64/94/8 65/96/8
f 17/97/6 61/100/6 62/98/6
f 29/99/6 28/146/6 61/100/6
f 28/101/7 29/84/7 56/102/7
f 51/104/4 12/147/4 11/105/4
f 48/107/10 41/127/10 29/10/10
f 4/109/4 12/147/4 51/104/4
f 43/111/10 12/123/10 10/112/10
f 39/80/2 27/82/2 26/115/2
f 26/115/2 24/148/2 36/149/2
f 36/149/2 38/114/2 26/115/2
f 41/63/7 39/65/7 36/116/7
f 59/118/3 53/119/3 55/60/3
f 53/119/3 52/121/3 57/95/3
f 50/120/3 51/93/3 57/95/3
f 3/122/3 10/112/3 12/123/3
l 3 9
l 9 10
l 37 40
l 40 41
l 53 54
l 54 55
l 58 52
l 57 58
l 59 60
l 60 56
